# Blender v2.93.5 OBJ File: 'untitled.blend'
# www.blender.org
mtllib untitled.mtl
o 4막대.002_Cube.017
v -1.302335 4.100806 -1.300000
v 0.288340 2.509500 -1.300000
v -1.585234 3.818020 -1.300000
v 0.005441 2.226714 -1.300000
v -1.302335 4.100806 -1.700000
v 0.288340 2.509500 -1.700000
v -1.585233 3.818020 -1.700000
v 0.005441 2.226714 -1.700000
v 1.700000 4.097451 1.300000
v 1.700000 3.697451 1.300000
v 1.700000 4.097451 1.700000
v 1.700000 3.697451 1.700000
v 1.300000 4.097451 1.300000
v 1.300000 3.697451 1.300000
v 1.300000 4.097451 1.700000
v 1.300000 3.697451 1.700000
v 1.700000 4.097459 1.296637
v 1.700000 2.641343 -0.159480
v 1.700000 3.814617 1.579480
v 1.700000 2.358500 0.123363
v 1.300000 4.097459 1.296637
v 1.300000 2.641343 -0.159480
v 1.300000 3.814617 1.579480
v 1.300000 2.358500 0.123363
v 1.302335 4.100806 1.300000
v -0.288339 2.509500 1.300000
v 1.585234 3.818019 1.300000
v -0.005441 2.226713 1.300000
v 1.302335 4.100806 1.700000
v -0.288339 2.509500 1.700000
v 1.585234 3.818019 1.700000
v -0.005441 2.226713 1.700000
v 1.700000 2.677974 -0.122868
v 1.700000 1.220868 -1.579975
v 1.700000 2.395132 0.159975
v 1.700000 0.938025 -1.297132
v 1.300000 2.677974 -0.122868
v 1.300000 1.220868 -1.579975
v 1.300000 2.395132 0.159975
v 1.300000 0.938025 -1.297132
v 1.302335 4.100806 -1.700000
v -0.288339 2.509500 -1.700000
v 1.585234 3.818019 -1.700000
v -0.005441 2.226713 -1.700000
v 1.302335 4.100806 -1.300000
v -0.288339 2.509500 -1.300000
v 1.585234 3.818019 -1.300000
v -0.005441 2.226713 -1.300000
v -1.300000 2.520000 1.300000
v -1.300000 0.940000 1.300000
v -1.300000 2.520000 1.700000
v -1.300000 0.940000 1.700000
v -1.700000 2.520000 1.300000
v -1.700000 0.940000 1.300000
v -1.700000 2.520000 1.700000
v -1.700000 0.940000 1.700000
v -1.300000 4.100000 -1.700000
v -1.300000 0.940000 -1.700000
v -1.300000 4.100000 -1.300000
v -1.300000 0.940000 -1.300000
v -1.700000 4.100000 -1.700000
v -1.700000 0.940000 -1.700000
v -1.700000 4.100000 -1.300000
v -1.700000 0.940000 -1.300000
v -1.300000 4.097459 1.296637
v -1.300000 2.641343 -0.159480
v -1.300000 3.814617 1.579480
v -1.300000 2.358500 0.123363
v -1.700000 4.097459 1.296637
v -1.700000 2.641343 -0.159480
v -1.700000 3.814617 1.579480
v -1.700000 2.358500 0.123363
v -1.300000 2.677974 -0.122868
v -1.300000 1.220868 -1.579975
v -1.300000 2.395132 0.159975
v -1.300000 0.938025 -1.297132
v -1.700000 2.677974 -0.122868
v -1.700000 1.220868 -1.579975
v -1.700000 2.395132 0.159975
v -1.700000 0.938025 -1.297132
v -1.585363 3.817833 1.300000
v 0.005627 2.226843 1.300000
v -1.302521 4.100676 1.300000
v 0.288470 2.509686 1.300000
v -1.585363 3.817833 1.700000
v 0.005627 2.226843 1.700000
v -1.302521 4.100676 1.700000
v 0.288470 2.509686 1.700000
v -1.300000 4.097451 1.300000
v -1.300000 3.697451 1.300000
v -1.300000 4.097451 1.700000
v -1.300000 3.697451 1.700000
v -1.700000 4.097451 1.300000
v -1.700000 3.697451 1.300000
v -1.700000 4.097451 1.700000
v -1.700000 3.697451 1.700000
v 1.700000 4.097451 -1.700000
v 1.700000 3.697451 -1.700000
v 1.700000 4.097451 -1.300000
v 1.700000 3.697451 -1.300000
v 1.300000 4.097451 -1.700000
v 1.300000 3.697451 -1.700000
v 1.300000 4.097451 -1.300000
v 1.300000 3.697451 -1.300000
v 1.700000 1.338020 -1.700000
v 1.700000 0.938020 -1.700000
v 1.700000 1.338020 -1.300000
v 1.700000 0.938020 -1.300000
v 1.300000 1.338020 -1.700000
v 1.300000 0.938020 -1.700000
v 1.300000 1.338020 -1.300000
v 1.300000 0.938020 -1.300000
vt 0.625000 0.500000
vt 0.875000 0.500000
vt 0.875000 0.750000
vt 0.625000 0.750000
vt 0.375000 0.750000
vt 0.625000 1.000000
vt 0.375000 1.000000
vt 0.375000 0.000000
vt 0.625000 0.000000
vt 0.625000 0.250000
vt 0.375000 0.250000
vt 0.125000 0.500000
vt 0.375000 0.500000
vt 0.125000 0.750000
vt 0.625000 0.500000
vt 0.875000 0.500000
vt 0.875000 0.750000
vt 0.625000 0.750000
vt 0.375000 0.750000
vt 0.625000 1.000000
vt 0.375000 1.000000
vt 0.375000 0.000000
vt 0.625000 0.000000
vt 0.625000 0.250000
vt 0.375000 0.250000
vt 0.125000 0.500000
vt 0.375000 0.500000
vt 0.125000 0.750000
vt 0.625000 0.500000
vt 0.875000 0.500000
vt 0.875000 0.750000
vt 0.625000 0.750000
vt 0.375000 0.750000
vt 0.625000 1.000000
vt 0.375000 1.000000
vt 0.375000 0.000000
vt 0.625000 0.000000
vt 0.625000 0.250000
vt 0.375000 0.250000
vt 0.125000 0.500000
vt 0.375000 0.500000
vt 0.125000 0.750000
vt 0.625000 0.500000
vt 0.875000 0.500000
vt 0.875000 0.750000
vt 0.625000 0.750000
vt 0.375000 0.750000
vt 0.625000 1.000000
vt 0.375000 1.000000
vt 0.375000 0.000000
vt 0.625000 0.000000
vt 0.625000 0.250000
vt 0.375000 0.250000
vt 0.125000 0.500000
vt 0.375000 0.500000
vt 0.125000 0.750000
vt 0.625000 0.500000
vt 0.875000 0.500000
vt 0.875000 0.750000
vt 0.625000 0.750000
vt 0.375000 0.750000
vt 0.625000 1.000000
vt 0.375000 1.000000
vt 0.375000 0.000000
vt 0.625000 0.000000
vt 0.625000 0.250000
vt 0.375000 0.250000
vt 0.125000 0.500000
vt 0.375000 0.500000
vt 0.125000 0.750000
vt 0.625000 0.500000
vt 0.875000 0.500000
vt 0.875000 0.750000
vt 0.625000 0.750000
vt 0.375000 0.750000
vt 0.625000 1.000000
vt 0.375000 1.000000
vt 0.375000 0.000000
vt 0.625000 0.000000
vt 0.625000 0.250000
vt 0.375000 0.250000
vt 0.125000 0.500000
vt 0.375000 0.500000
vt 0.125000 0.750000
vt 0.625000 0.500000
vt 0.875000 0.500000
vt 0.875000 0.750000
vt 0.625000 0.750000
vt 0.375000 0.750000
vt 0.625000 1.000000
vt 0.375000 1.000000
vt 0.375000 0.000000
vt 0.625000 0.000000
vt 0.625000 0.250000
vt 0.375000 0.250000
vt 0.125000 0.500000
vt 0.375000 0.500000
vt 0.125000 0.750000
vt 0.625000 0.500000
vt 0.875000 0.500000
vt 0.875000 0.750000
vt 0.625000 0.750000
vt 0.375000 0.750000
vt 0.625000 1.000000
vt 0.375000 1.000000
vt 0.375000 0.000000
vt 0.625000 0.000000
vt 0.625000 0.250000
vt 0.375000 0.250000
vt 0.125000 0.500000
vt 0.375000 0.500000
vt 0.125000 0.750000
vt 0.625000 0.500000
vt 0.875000 0.500000
vt 0.875000 0.750000
vt 0.625000 0.750000
vt 0.375000 0.750000
vt 0.625000 1.000000
vt 0.375000 1.000000
vt 0.375000 0.000000
vt 0.625000 0.000000
vt 0.625000 0.250000
vt 0.375000 0.250000
vt 0.125000 0.500000
vt 0.375000 0.500000
vt 0.125000 0.750000
vt 0.625000 0.500000
vt 0.875000 0.500000
vt 0.875000 0.750000
vt 0.625000 0.750000
vt 0.375000 0.750000
vt 0.625000 1.000000
vt 0.375000 1.000000
vt 0.375000 0.000000
vt 0.625000 0.000000
vt 0.625000 0.250000
vt 0.375000 0.250000
vt 0.125000 0.500000
vt 0.375000 0.500000
vt 0.125000 0.750000
vt 0.625000 0.500000
vt 0.875000 0.500000
vt 0.875000 0.750000
vt 0.625000 0.750000
vt 0.375000 0.750000
vt 0.625000 1.000000
vt 0.375000 1.000000
vt 0.375000 0.000000
vt 0.625000 0.000000
vt 0.625000 0.250000
vt 0.375000 0.250000
vt 0.125000 0.500000
vt 0.375000 0.500000
vt 0.125000 0.750000
vt 0.625000 0.500000
vt 0.875000 0.500000
vt 0.875000 0.750000
vt 0.625000 0.750000
vt 0.375000 0.750000
vt 0.625000 1.000000
vt 0.375000 1.000000
vt 0.375000 0.000000
vt 0.625000 0.000000
vt 0.625000 0.250000
vt 0.375000 0.250000
vt 0.125000 0.500000
vt 0.375000 0.500000
vt 0.125000 0.750000
vt 0.625000 0.500000
vt 0.875000 0.500000
vt 0.875000 0.750000
vt 0.625000 0.750000
vt 0.375000 0.750000
vt 0.625000 1.000000
vt 0.375000 1.000000
vt 0.375000 0.000000
vt 0.625000 0.000000
vt 0.625000 0.250000
vt 0.375000 0.250000
vt 0.125000 0.500000
vt 0.375000 0.500000
vt 0.125000 0.750000
vt 0.625000 0.500000
vt 0.875000 0.500000
vt 0.875000 0.750000
vt 0.625000 0.750000
vt 0.375000 0.750000
vt 0.625000 1.000000
vt 0.375000 1.000000
vt 0.375000 0.000000
vt 0.625000 0.000000
vt 0.625000 0.250000
vt 0.375000 0.250000
vt 0.125000 0.500000
vt 0.375000 0.500000
vt 0.125000 0.750000
vn -0.7070 0.7072 -0.0000
vn -0.7072 -0.7070 0.0000
vn 0.0000 -0.0000 -1.0000
vn 0.7070 -0.7072 0.0000
vn 0.0000 0.0000 1.0000
vn 0.7072 0.7070 0.0000
vn 0.0000 1.0000 0.0000
vn -1.0000 0.0000 0.0000
vn 0.0000 -1.0000 0.0000
vn 1.0000 0.0000 0.0000
vn 0.0000 0.7071 0.7071
vn 0.0000 -0.7071 0.7071
vn 0.0000 -0.7071 -0.7071
vn 0.0000 0.7071 -0.7071
vn 0.7070 0.7072 0.0000
vn 0.7072 -0.7070 0.0000
vn -0.7070 -0.7072 0.0000
vn -0.7072 0.7070 0.0000
vn -0.7071 0.7071 0.0000
vn 0.7071 0.7071 0.0000
vn 0.7071 -0.7071 0.0000
vn -0.7071 -0.7071 0.0000
usemtl Material.017
s off
f 1/1/1 5/2/1 7/3/1 3/4/1
f 4/5/2 3/4/2 7/6/2 8/7/2
f 8/8/3 7/9/3 5/10/3 6/11/3
f 6/12/4 2/13/4 4/5/4 8/14/4
f 2/13/5 1/1/5 3/4/5 4/5/5
f 6/11/6 5/10/6 1/1/6 2/13/6
usemtl Material.004
f 9/15/7 13/16/7 15/17/7 11/18/7
f 12/19/5 11/18/5 15/20/5 16/21/5
f 16/22/8 15/23/8 13/24/8 14/25/8
f 14/26/9 10/27/9 12/19/9 16/28/9
f 10/27/10 9/15/10 11/18/10 12/19/10
f 14/25/3 13/24/3 9/15/3 10/27/3
usemtl Material.007
f 17/29/11 21/30/11 23/31/11 19/32/11
f 20/33/12 19/32/12 23/34/12 24/35/12
f 24/36/8 23/37/8 21/38/8 22/39/8
f 22/40/13 18/41/13 20/33/13 24/42/13
f 18/41/10 17/29/10 19/32/10 20/33/10
f 22/39/14 21/38/14 17/29/14 18/41/14
usemtl Material.008
f 25/43/15 29/44/15 31/45/15 27/46/15
f 28/47/16 27/46/16 31/48/16 32/49/16
f 32/50/5 31/51/5 29/52/5 30/53/5
f 30/54/17 26/55/17 28/47/17 32/56/17
f 26/55/3 25/43/3 27/46/3 28/47/3
f 30/53/18 29/52/18 25/43/18 26/55/18
usemtl Material.009
f 33/57/11 37/58/11 39/59/11 35/60/11
f 36/61/12 35/60/12 39/62/12 40/63/12
f 40/64/8 39/65/8 37/66/8 38/67/8
f 38/68/13 34/69/13 36/61/13 40/70/13
f 34/69/10 33/57/10 35/60/10 36/61/10
f 38/67/14 37/66/14 33/57/14 34/69/14
usemtl Material.010
f 41/71/15 45/72/15 47/73/15 43/74/15
f 44/75/16 43/74/16 47/76/16 48/77/16
f 48/78/5 47/79/5 45/80/5 46/81/5
f 46/82/17 42/83/17 44/75/17 48/84/17
f 42/83/3 41/71/3 43/74/3 44/75/3
f 46/81/18 45/80/18 41/71/18 42/83/18
usemtl Material.013
f 49/85/7 53/86/7 55/87/7 51/88/7
f 52/89/5 51/88/5 55/90/5 56/91/5
f 56/92/8 55/93/8 53/94/8 54/95/8
f 54/96/9 50/97/9 52/89/9 56/98/9
f 50/97/10 49/85/10 51/88/10 52/89/10
f 54/95/3 53/94/3 49/85/3 50/97/3
usemtl Material.014
f 57/99/7 61/100/7 63/101/7 59/102/7
f 60/103/5 59/102/5 63/104/5 64/105/5
f 64/106/8 63/107/8 61/108/8 62/109/8
f 62/110/9 58/111/9 60/103/9 64/112/9
f 58/111/10 57/99/10 59/102/10 60/103/10
f 62/109/3 61/108/3 57/99/3 58/111/3
usemtl Material.015
f 65/113/11 69/114/11 71/115/11 67/116/11
f 68/117/12 67/116/12 71/118/12 72/119/12
f 72/120/8 71/121/8 69/122/8 70/123/8
f 70/124/13 66/125/13 68/117/13 72/126/13
f 66/125/10 65/113/10 67/116/10 68/117/10
f 70/123/14 69/122/14 65/113/14 66/125/14
usemtl Material.016
f 73/127/11 77/128/11 79/129/11 75/130/11
f 76/131/12 75/130/12 79/132/12 80/133/12
f 80/134/8 79/135/8 77/136/8 78/137/8
f 78/138/13 74/139/13 76/131/13 80/140/13
f 74/139/10 73/127/10 75/130/10 76/131/10
f 78/137/14 77/136/14 73/127/14 74/139/14
usemtl Material.018
f 81/141/19 85/142/19 87/143/19 83/144/19
f 84/145/20 83/144/20 87/146/20 88/147/20
f 88/148/5 87/149/5 85/150/5 86/151/5
f 86/152/21 82/153/21 84/145/21 88/154/21
f 82/153/3 81/141/3 83/144/3 84/145/3
f 86/151/22 85/150/22 81/141/22 82/153/22
usemtl Material.020
f 89/155/7 93/156/7 95/157/7 91/158/7
f 92/159/5 91/158/5 95/160/5 96/161/5
f 96/162/8 95/163/8 93/164/8 94/165/8
f 94/166/9 90/167/9 92/159/9 96/168/9
f 90/167/10 89/155/10 91/158/10 92/159/10
f 94/165/3 93/164/3 89/155/3 90/167/3
usemtl Material.021
f 97/169/7 101/170/7 103/171/7 99/172/7
f 100/173/5 99/172/5 103/174/5 104/175/5
f 104/176/8 103/177/8 101/178/8 102/179/8
f 102/180/9 98/181/9 100/173/9 104/182/9
f 98/181/10 97/169/10 99/172/10 100/173/10
f 102/179/3 101/178/3 97/169/3 98/181/3
usemtl Material.022
f 105/183/7 109/184/7 111/185/7 107/186/7
f 108/187/5 107/186/5 111/188/5 112/189/5
f 112/190/8 111/191/8 109/192/8 110/193/8
f 110/194/9 106/195/9 108/187/9 112/196/9
f 106/195/10 105/183/10 107/186/10 108/187/10
f 110/193/3 109/192/3 105/183/3 106/195/3
