# Blender v2.93.5 OBJ File: 'untitled2.blend'
# www.blender.org
mtllib untitled2.mtl
o 1막대_Cube.017
v -1.300000 1.338020 -0.000440
v -1.300000 0.938020 -0.000440
v -1.300000 1.338020 1.580440
v -1.300000 0.938020 1.580440
v -1.700000 1.338020 -0.000440
v -1.700000 0.938020 -0.000440
v -1.700000 1.338020 1.580440
v -1.700000 0.938020 1.580440
v 1.700000 4.097451 1.300000
v 1.700000 3.697451 1.300000
v 1.700000 4.097451 1.700000
v 1.700000 3.697451 1.700000
v 1.300000 4.097451 1.300000
v 1.300000 3.697451 1.300000
v 1.300000 4.097451 1.700000
v 1.300000 3.697451 1.700000
v -1.300000 4.097451 1.300000
v -1.300000 3.697451 1.300000
v -1.300000 4.097451 1.700000
v -1.300000 3.697451 1.700000
v -1.700000 4.097451 1.300000
v -1.700000 3.697451 1.300000
v -1.700000 4.097451 1.700000
v -1.700000 3.697451 1.700000
v 1.700000 1.338020 -1.700000
v 1.700000 0.938020 -1.700000
v 1.700000 1.338020 -1.300000
v 1.700000 0.938020 -1.300000
v 1.300000 1.338020 -1.700000
v 1.300000 0.938020 -1.700000
v 1.300000 1.338020 -1.300000
v 1.300000 0.938020 -1.300000
v 1.700000 1.338020 1.300000
v 1.700000 0.938020 1.300000
v 1.700000 1.338020 1.700000
v 1.700000 0.938020 1.700000
v 1.300000 1.338020 1.300000
v 1.300000 0.938020 1.300000
v 1.300000 1.338020 1.700000
v 1.300000 0.938020 1.700000
v -1.300000 1.338020 1.300000
v -1.300000 0.938020 1.300000
v -1.300000 1.338020 1.700000
v -1.300000 0.938020 1.700000
v -1.700000 1.338020 1.300000
v -1.700000 0.938020 1.300000
v -1.700000 1.338020 1.700000
v -1.700000 0.938020 1.700000
v -1.300000 1.338020 -1.700000
v -1.300000 0.938020 -1.700000
v -1.300000 1.338020 -1.300000
v -1.300000 0.938020 -1.300000
v -1.700000 1.338020 -1.700000
v -1.700000 0.938020 -1.700000
v -1.700000 1.338020 -1.300000
v -1.700000 0.938020 -1.300000
v -1.300000 4.097451 -1.700000
v -1.300000 3.697451 -1.700000
v -1.300000 4.097451 -1.300000
v -1.300000 3.697451 -1.300000
v -1.700000 4.097451 -1.700000
v -1.700000 3.697451 -1.700000
v -1.700000 4.097451 -1.300000
v -1.700000 3.697451 -1.300000
v 1.700000 2.914000 -0.000440
v 1.700000 2.514000 -0.000440
v 1.700000 2.914000 1.580440
v 1.700000 2.514000 1.580440
v 1.300000 2.914000 -0.000440
v 1.300000 2.514000 -0.000440
v 1.300000 2.914000 1.580440
v 1.300000 2.514000 1.580440
v 1.700000 4.094931 1.700000
v 1.700000 4.094931 1.300000
v 1.700000 2.514051 1.700000
v 1.700000 2.514051 1.300000
v 1.300000 4.094931 1.700000
v 1.300000 4.094931 1.300000
v 1.300000 2.514051 1.700000
v 1.300000 2.514051 1.300000
v 1.700000 4.097451 -0.000440
v 1.700000 3.697451 -0.000440
v 1.700000 4.097451 1.580440
v 1.700000 3.697451 1.580440
v 1.300000 4.097451 -0.000440
v 1.300000 3.697451 -0.000440
v 1.300000 4.097451 1.580440
v 1.300000 3.697451 1.580440
v 0.139494 1.338020 -0.141109
v 0.139494 0.938020 -0.141109
v 1.593498 1.338020 1.429073
v 1.593498 0.938020 1.429073
v -0.153998 1.338020 0.130667
v -0.153998 0.938020 0.130667
v 1.300006 1.338020 1.700849
v 1.300006 0.938020 1.700849
v -1.300056 1.338020 -1.700079
v -1.300056 0.938020 -1.700079
v 0.153948 1.338020 -0.129897
v 0.153948 0.938020 -0.129897
v -1.593548 1.338020 -1.428303
v -1.593548 0.938020 -1.428303
v -0.139544 1.338020 0.141879
v -0.139544 0.938020 0.141879
v 1.700000 2.518889 -1.300000
v 1.700000 2.518889 -1.700000
v 1.700000 0.938010 -1.300000
v 1.700000 0.938010 -1.700000
v 1.300000 2.518889 -1.300000
v 1.300000 2.518889 -1.700000
v 1.300000 0.938010 -1.300000
v 1.300000 0.938010 -1.700000
v -1.300000 2.518889 -1.300000
v -1.300000 2.518889 -1.700000
v -1.300000 0.938010 -1.300000
v -1.300000 0.938010 -1.700000
v -1.700000 2.518889 -1.300000
v -1.700000 2.518889 -1.700000
v -1.700000 0.938010 -1.300000
v -1.700000 0.938010 -1.700000
v -1.300000 2.914000 -1.580440
v -1.300000 2.514000 -1.580440
v -1.300000 2.914000 0.000440
v -1.300000 2.514000 0.000440
v -1.700000 2.914000 -1.580440
v -1.700000 2.514000 -1.580440
v -1.700000 2.914000 0.000440
v -1.700000 2.514000 0.000440
v -1.300000 4.097451 -1.580440
v -1.300000 3.697451 -1.580440
v -1.300000 4.097451 0.000440
v -1.300000 3.697451 0.000440
v -1.700000 4.097451 -1.580440
v -1.700000 3.697451 -1.580440
v -1.700000 4.097451 0.000440
v -1.700000 3.697451 0.000440
v -1.300000 2.914000 -1.700000
v -1.300000 2.514000 -1.700000
v -1.300000 2.914000 -1.300000
v -1.300000 2.514000 -1.300000
v -1.700000 2.914000 -1.700000
v -1.700000 2.514000 -1.700000
v -1.700000 2.914000 -1.300000
v -1.700000 2.514000 -1.300000
v -1.300000 4.094931 1.700000
v -1.300000 4.094931 1.300000
v -1.300000 2.514051 1.700000
v -1.300000 2.514051 1.300000
v -1.700000 4.094931 1.700000
v -1.700000 4.094931 1.300000
v -1.700000 2.514051 1.700000
v -1.700000 2.514051 1.300000
v 1.700000 1.338020 -1.580440
v 1.700000 0.938020 -1.580440
v 1.700000 1.338020 0.000440
v 1.700000 0.938020 0.000440
v 1.300000 1.338020 -1.580440
v 1.300000 0.938020 -1.580440
v 1.300000 1.338020 0.000440
v 1.300000 0.938020 0.000440
vt 0.625000 0.500000
vt 0.875000 0.500000
vt 0.875000 0.750000
vt 0.625000 0.750000
vt 0.375000 0.750000
vt 0.625000 1.000000
vt 0.375000 1.000000
vt 0.375000 0.000000
vt 0.625000 0.000000
vt 0.625000 0.250000
vt 0.375000 0.250000
vt 0.125000 0.500000
vt 0.375000 0.500000
vt 0.125000 0.750000
vt 0.625000 0.500000
vt 0.875000 0.500000
vt 0.875000 0.750000
vt 0.625000 0.750000
vt 0.375000 0.750000
vt 0.625000 1.000000
vt 0.375000 1.000000
vt 0.375000 0.000000
vt 0.625000 0.000000
vt 0.625000 0.250000
vt 0.375000 0.250000
vt 0.125000 0.500000
vt 0.375000 0.500000
vt 0.125000 0.750000
vt 0.625000 0.500000
vt 0.875000 0.500000
vt 0.875000 0.750000
vt 0.625000 0.750000
vt 0.375000 0.750000
vt 0.625000 1.000000
vt 0.375000 1.000000
vt 0.375000 0.000000
vt 0.625000 0.000000
vt 0.625000 0.250000
vt 0.375000 0.250000
vt 0.125000 0.500000
vt 0.375000 0.500000
vt 0.125000 0.750000
vt 0.625000 0.500000
vt 0.875000 0.500000
vt 0.875000 0.750000
vt 0.625000 0.750000
vt 0.375000 0.750000
vt 0.625000 1.000000
vt 0.375000 1.000000
vt 0.375000 0.000000
vt 0.625000 0.000000
vt 0.625000 0.250000
vt 0.375000 0.250000
vt 0.125000 0.500000
vt 0.375000 0.500000
vt 0.125000 0.750000
vt 0.625000 0.500000
vt 0.875000 0.500000
vt 0.875000 0.750000
vt 0.625000 0.750000
vt 0.375000 0.750000
vt 0.625000 1.000000
vt 0.375000 1.000000
vt 0.375000 0.000000
vt 0.625000 0.000000
vt 0.625000 0.250000
vt 0.375000 0.250000
vt 0.125000 0.500000
vt 0.375000 0.500000
vt 0.125000 0.750000
vt 0.625000 0.500000
vt 0.875000 0.500000
vt 0.875000 0.750000
vt 0.625000 0.750000
vt 0.375000 0.750000
vt 0.625000 1.000000
vt 0.375000 1.000000
vt 0.375000 0.000000
vt 0.625000 0.000000
vt 0.625000 0.250000
vt 0.375000 0.250000
vt 0.125000 0.500000
vt 0.375000 0.500000
vt 0.125000 0.750000
vt 0.625000 0.500000
vt 0.875000 0.500000
vt 0.875000 0.750000
vt 0.625000 0.750000
vt 0.375000 0.750000
vt 0.625000 1.000000
vt 0.375000 1.000000
vt 0.375000 0.000000
vt 0.625000 0.000000
vt 0.625000 0.250000
vt 0.375000 0.250000
vt 0.125000 0.500000
vt 0.375000 0.500000
vt 0.125000 0.750000
vt 0.625000 0.500000
vt 0.875000 0.500000
vt 0.875000 0.750000
vt 0.625000 0.750000
vt 0.375000 0.750000
vt 0.625000 1.000000
vt 0.375000 1.000000
vt 0.375000 0.000000
vt 0.625000 0.000000
vt 0.625000 0.250000
vt 0.375000 0.250000
vt 0.125000 0.500000
vt 0.375000 0.500000
vt 0.125000 0.750000
vt 0.625000 0.500000
vt 0.875000 0.500000
vt 0.875000 0.750000
vt 0.625000 0.750000
vt 0.375000 0.750000
vt 0.625000 1.000000
vt 0.375000 1.000000
vt 0.375000 0.000000
vt 0.625000 0.000000
vt 0.625000 0.250000
vt 0.375000 0.250000
vt 0.125000 0.500000
vt 0.375000 0.500000
vt 0.125000 0.750000
vt 0.625000 0.500000
vt 0.875000 0.500000
vt 0.875000 0.750000
vt 0.625000 0.750000
vt 0.375000 0.750000
vt 0.625000 1.000000
vt 0.375000 1.000000
vt 0.375000 0.000000
vt 0.625000 0.000000
vt 0.625000 0.250000
vt 0.375000 0.250000
vt 0.125000 0.500000
vt 0.375000 0.500000
vt 0.125000 0.750000
vt 0.625000 0.500000
vt 0.875000 0.500000
vt 0.875000 0.750000
vt 0.625000 0.750000
vt 0.375000 0.750000
vt 0.625000 1.000000
vt 0.375000 1.000000
vt 0.375000 0.000000
vt 0.625000 0.000000
vt 0.625000 0.250000
vt 0.375000 0.250000
vt 0.125000 0.500000
vt 0.375000 0.500000
vt 0.125000 0.750000
vt 0.625000 0.500000
vt 0.875000 0.500000
vt 0.875000 0.750000
vt 0.625000 0.750000
vt 0.375000 0.750000
vt 0.625000 1.000000
vt 0.375000 1.000000
vt 0.375000 0.000000
vt 0.625000 0.000000
vt 0.625000 0.250000
vt 0.375000 0.250000
vt 0.125000 0.500000
vt 0.375000 0.500000
vt 0.125000 0.750000
vt 0.625000 0.500000
vt 0.875000 0.500000
vt 0.875000 0.750000
vt 0.625000 0.750000
vt 0.375000 0.750000
vt 0.625000 1.000000
vt 0.375000 1.000000
vt 0.375000 0.000000
vt 0.625000 0.000000
vt 0.625000 0.250000
vt 0.375000 0.250000
vt 0.125000 0.500000
vt 0.375000 0.500000
vt 0.125000 0.750000
vt 0.625000 0.500000
vt 0.875000 0.500000
vt 0.875000 0.750000
vt 0.625000 0.750000
vt 0.375000 0.750000
vt 0.625000 1.000000
vt 0.375000 1.000000
vt 0.375000 0.000000
vt 0.625000 0.000000
vt 0.625000 0.250000
vt 0.375000 0.250000
vt 0.125000 0.500000
vt 0.375000 0.500000
vt 0.125000 0.750000
vt 0.625000 0.500000
vt 0.875000 0.500000
vt 0.875000 0.750000
vt 0.625000 0.750000
vt 0.375000 0.750000
vt 0.625000 1.000000
vt 0.375000 1.000000
vt 0.375000 0.000000
vt 0.625000 0.000000
vt 0.625000 0.250000
vt 0.375000 0.250000
vt 0.125000 0.500000
vt 0.375000 0.500000
vt 0.125000 0.750000
vt 0.625000 0.500000
vt 0.875000 0.500000
vt 0.875000 0.750000
vt 0.625000 0.750000
vt 0.375000 0.750000
vt 0.625000 1.000000
vt 0.375000 1.000000
vt 0.375000 0.000000
vt 0.625000 0.000000
vt 0.625000 0.250000
vt 0.375000 0.250000
vt 0.125000 0.500000
vt 0.375000 0.500000
vt 0.125000 0.750000
vt 0.625000 0.500000
vt 0.875000 0.500000
vt 0.875000 0.750000
vt 0.625000 0.750000
vt 0.375000 0.750000
vt 0.625000 1.000000
vt 0.375000 1.000000
vt 0.375000 0.000000
vt 0.625000 0.000000
vt 0.625000 0.250000
vt 0.375000 0.250000
vt 0.125000 0.500000
vt 0.375000 0.500000
vt 0.125000 0.750000
vt 0.625000 0.500000
vt 0.875000 0.500000
vt 0.875000 0.750000
vt 0.625000 0.750000
vt 0.375000 0.750000
vt 0.625000 1.000000
vt 0.375000 1.000000
vt 0.375000 0.000000
vt 0.625000 0.000000
vt 0.625000 0.250000
vt 0.375000 0.250000
vt 0.125000 0.500000
vt 0.375000 0.500000
vt 0.125000 0.750000
vt 0.625000 0.500000
vt 0.875000 0.500000
vt 0.875000 0.750000
vt 0.625000 0.750000
vt 0.375000 0.750000
vt 0.625000 1.000000
vt 0.375000 1.000000
vt 0.375000 0.000000
vt 0.625000 0.000000
vt 0.625000 0.250000
vt 0.375000 0.250000
vt 0.125000 0.500000
vt 0.375000 0.500000
vt 0.125000 0.750000
vt 0.625000 0.500000
vt 0.875000 0.500000
vt 0.875000 0.750000
vt 0.625000 0.750000
vt 0.375000 0.750000
vt 0.625000 1.000000
vt 0.375000 1.000000
vt 0.375000 0.000000
vt 0.625000 0.000000
vt 0.625000 0.250000
vt 0.375000 0.250000
vt 0.125000 0.500000
vt 0.375000 0.500000
vt 0.125000 0.750000
vn 0.0000 1.0000 0.0000
vn 0.0000 0.0000 1.0000
vn -1.0000 0.0000 0.0000
vn 0.0000 -1.0000 0.0000
vn 1.0000 0.0000 0.0000
vn 0.0000 0.0000 -1.0000
vn 0.6794 0.0000 0.7337
vn -0.7337 0.0000 0.6794
vn 0.7337 0.0000 -0.6794
vn -0.6794 0.0000 -0.7337
usemtl Material.036
s off
f 1/1/1 5/2/1 7/3/1 3/4/1
f 4/5/2 3/4/2 7/6/2 8/7/2
f 8/8/3 7/9/3 5/10/3 6/11/3
f 6/12/4 2/13/4 4/5/4 8/14/4
f 2/13/5 1/1/5 3/4/5 4/5/5
f 6/11/6 5/10/6 1/1/6 2/13/6
usemtl Material.004
f 9/15/1 13/16/1 15/17/1 11/18/1
f 12/19/2 11/18/2 15/20/2 16/21/2
f 16/22/3 15/23/3 13/24/3 14/25/3
f 14/26/4 10/27/4 12/19/4 16/28/4
f 10/27/5 9/15/5 11/18/5 12/19/5
f 14/25/6 13/24/6 9/15/6 10/27/6
usemtl Material.020
f 17/29/1 21/30/1 23/31/1 19/32/1
f 20/33/2 19/32/2 23/34/2 24/35/2
f 24/36/3 23/37/3 21/38/3 22/39/3
f 22/40/4 18/41/4 20/33/4 24/42/4
f 18/41/5 17/29/5 19/32/5 20/33/5
f 22/39/6 21/38/6 17/29/6 18/41/6
usemtl Material.022
f 25/43/1 29/44/1 31/45/1 27/46/1
f 28/47/2 27/46/2 31/48/2 32/49/2
f 32/50/3 31/51/3 29/52/3 30/53/3
f 30/54/4 26/55/4 28/47/4 32/56/4
f 26/55/5 25/43/5 27/46/5 28/47/5
f 30/53/6 29/52/6 25/43/6 26/55/6
usemtl Material.005
f 33/57/1 37/58/1 39/59/1 35/60/1
f 36/61/2 35/60/2 39/62/2 40/63/2
f 40/64/3 39/65/3 37/66/3 38/67/3
f 38/68/4 34/69/4 36/61/4 40/70/4
f 34/69/5 33/57/5 35/60/5 36/61/5
f 38/67/6 37/66/6 33/57/6 34/69/6
usemtl Material.006
f 41/71/1 45/72/1 47/73/1 43/74/1
f 44/75/2 43/74/2 47/76/2 48/77/2
f 48/78/3 47/79/3 45/80/3 46/81/3
f 46/82/4 42/83/4 44/75/4 48/84/4
f 42/83/5 41/71/5 43/74/5 44/75/5
f 46/81/6 45/80/6 41/71/6 42/83/6
usemtl Material.023
f 49/85/1 53/86/1 55/87/1 51/88/1
f 52/89/2 51/88/2 55/90/2 56/91/2
f 56/92/3 55/93/3 53/94/3 54/95/3
f 54/96/4 50/97/4 52/89/4 56/98/4
f 50/97/5 49/85/5 51/88/5 52/89/5
f 54/95/6 53/94/6 49/85/6 50/97/6
usemtl Material.012
f 57/99/1 61/100/1 63/101/1 59/102/1
f 60/103/2 59/102/2 63/104/2 64/105/2
f 64/106/3 63/107/3 61/108/3 62/109/3
f 62/110/4 58/111/4 60/103/4 64/112/4
f 58/111/5 57/99/5 59/102/5 60/103/5
f 62/109/6 61/108/6 57/99/6 58/111/6
usemtl Material.024
f 65/113/1 69/114/1 71/115/1 67/116/1
f 68/117/2 67/116/2 71/118/2 72/119/2
f 72/120/3 71/121/3 69/122/3 70/123/3
f 70/124/4 66/125/4 68/117/4 72/126/4
f 66/125/5 65/113/5 67/116/5 68/117/5
f 70/123/6 69/122/6 65/113/6 66/125/6
usemtl Material.026
f 73/127/2 77/128/2 79/129/2 75/130/2
f 76/131/4 75/130/4 79/132/4 80/133/4
f 80/134/3 79/135/3 77/136/3 78/137/3
f 78/138/6 74/139/6 76/131/6 80/140/6
f 74/139/5 73/127/5 75/130/5 76/131/5
f 78/137/1 77/136/1 73/127/1 74/139/1
usemtl Material.027
f 81/141/1 85/142/1 87/143/1 83/144/1
f 84/145/2 83/144/2 87/146/2 88/147/2
f 88/148/3 87/149/3 85/150/3 86/151/3
f 86/152/4 82/153/4 84/145/4 88/154/4
f 82/153/5 81/141/5 83/144/5 84/145/5
f 86/151/6 85/150/6 81/141/6 82/153/6
usemtl Material.028
f 89/155/1 93/156/1 95/157/1 91/158/1
f 92/159/7 91/158/7 95/160/7 96/161/7
f 96/162/8 95/163/8 93/164/8 94/165/8
f 94/166/4 90/167/4 92/159/4 96/168/4
f 90/167/9 89/155/9 91/158/9 92/159/9
f 94/165/10 93/164/10 89/155/10 90/167/10
usemtl Material.019
f 97/169/1 101/170/1 103/171/1 99/172/1
f 100/173/7 99/172/7 103/174/7 104/175/7
f 104/176/8 103/177/8 101/178/8 102/179/8
f 102/180/4 98/181/4 100/173/4 104/182/4
f 98/181/9 97/169/9 99/172/9 100/173/9
f 102/179/10 101/178/10 97/169/10 98/181/10
usemtl Material.029
f 105/183/2 109/184/2 111/185/2 107/186/2
f 108/187/4 107/186/4 111/188/4 112/189/4
f 112/190/3 111/191/3 109/192/3 110/193/3
f 110/194/6 106/195/6 108/187/6 112/196/6
f 106/195/5 105/183/5 107/186/5 108/187/5
f 110/193/1 109/192/1 105/183/1 106/195/1
usemtl Material.030
f 113/197/2 117/198/2 119/199/2 115/200/2
f 116/201/4 115/200/4 119/202/4 120/203/4
f 120/204/3 119/205/3 117/206/3 118/207/3
f 118/208/6 114/209/6 116/201/6 120/210/6
f 114/209/5 113/197/5 115/200/5 116/201/5
f 118/207/1 117/206/1 113/197/1 114/209/1
usemtl Material.031
f 121/211/1 125/212/1 127/213/1 123/214/1
f 124/215/2 123/214/2 127/216/2 128/217/2
f 128/218/3 127/219/3 125/220/3 126/221/3
f 126/222/4 122/223/4 124/215/4 128/224/4
f 122/223/5 121/211/5 123/214/5 124/215/5
f 126/221/6 125/220/6 121/211/6 122/223/6
usemtl Material.032
f 129/225/1 133/226/1 135/227/1 131/228/1
f 132/229/2 131/228/2 135/230/2 136/231/2
f 136/232/3 135/233/3 133/234/3 134/235/3
f 134/236/4 130/237/4 132/229/4 136/238/4
f 130/237/5 129/225/5 131/228/5 132/229/5
f 134/235/6 133/234/6 129/225/6 130/237/6
usemtl Material.033
f 137/239/1 141/240/1 143/241/1 139/242/1
f 140/243/2 139/242/2 143/244/2 144/245/2
f 144/246/3 143/247/3 141/248/3 142/249/3
f 142/250/4 138/251/4 140/243/4 144/252/4
f 138/251/5 137/239/5 139/242/5 140/243/5
f 142/249/6 141/248/6 137/239/6 138/251/6
usemtl Material.034
f 145/253/2 149/254/2 151/255/2 147/256/2
f 148/257/4 147/256/4 151/258/4 152/259/4
f 152/260/3 151/261/3 149/262/3 150/263/3
f 150/264/6 146/265/6 148/257/6 152/266/6
f 146/265/5 145/253/5 147/256/5 148/257/5
f 150/263/1 149/262/1 145/253/1 146/265/1
usemtl Material.035
f 153/267/1 157/268/1 159/269/1 155/270/1
f 156/271/2 155/270/2 159/272/2 160/273/2
f 160/274/3 159/275/3 157/276/3 158/277/3
f 158/278/4 154/279/4 156/271/4 160/280/4
f 154/279/5 153/267/5 155/270/5 156/271/5
f 158/277/6 157/276/6 153/267/6 154/279/6
